<svg xmlns="http://www.w3.org/2000/svg" viewBox="0 0 200 200" width="200" height="200">
  <path fill="#34a853" d="m 62.2,25 v 19.2 h 7.8 v -9.7 h 54.0 v 25.8 h 25.8 v 83.3 h -10.1 v 9.5 h 14.7 3.3 V 56.3 L 126.8,25 H 70.0 68.7 Z" />
  <path fill="#4285f4" d="M 42.1,46.8 V 175 h 7.8 81.1 5.7 V 69.8 h -4.5 -20.6 V 46.8 h -5.3 -2.4 -53.8 z m 7.8,9.5 h 53.8 v 22.9 l 25.1,0.0 v 86.1 H 50.0 Z m 4.8,9.7 v 3.7 h 40.7 v -3.7 z m 9.2,27.5 v 3.7 h 50.6 v -3.7 z m -0.2,18.8 v 3.7 h 50.6 v -3.7 z m 0.5,18.8 v 3.7 h 50.6 v -3.7 z" />
</svg>
